<svg width="235" height="150" viewBox="0 0 235 150" fill="none" xmlns="http://www.w3.org/2000/svg">
<path d="M12.4688 13.5V59H4.625V13.5H12.4688ZM31.0312 33.4062V39.625H10.4688V33.4062H31.0312ZM33.625 13.5V19.75H10.4688V13.5H33.625ZM76.1562 35V37.5C76.1562 40.9375 75.7083 44.0208 74.8125 46.75C73.9167 49.4792 72.6354 51.8021 70.9688 53.7188C69.3229 55.6354 67.3438 57.1042 65.0312 58.125C62.7188 59.125 60.1562 59.625 57.3438 59.625C54.5521 59.625 52 59.125 49.6875 58.125C47.3958 57.1042 45.4062 55.6354 43.7188 53.7188C42.0312 51.8021 40.7188 49.4792 39.7812 46.75C38.8646 44.0208 38.4062 40.9375 38.4062 37.5V35C38.4062 31.5625 38.8646 28.4896 39.7812 25.7812C40.6979 23.0521 41.9896 20.7292 43.6562 18.8125C45.3438 16.875 47.3333 15.4062 49.625 14.4062C51.9375 13.3854 54.4896 12.875 57.2812 12.875C60.0938 12.875 62.6562 13.3854 64.9688 14.4062C67.2812 15.4062 69.2708 16.875 70.9375 18.8125C72.6042 20.7292 73.8854 23.0521 74.7812 25.7812C75.6979 28.4896 76.1562 31.5625 76.1562 35ZM68.3125 37.5V34.9375C68.3125 32.3958 68.0625 30.1562 67.5625 28.2188C67.0833 26.2604 66.3646 24.625 65.4062 23.3125C64.4688 21.9792 63.3125 20.9792 61.9375 20.3125C60.5625 19.625 59.0104 19.2812 57.2812 19.2812C55.5521 19.2812 54.0104 19.625 52.6562 20.3125C51.3021 20.9792 50.1458 21.9792 49.1875 23.3125C48.25 24.625 47.5312 26.2604 47.0312 28.2188C46.5312 30.1562 46.2812 32.3958 46.2812 34.9375V37.5C46.2812 40.0417 46.5312 42.2917 47.0312 44.25C47.5312 46.2083 48.2604 47.8646 49.2188 49.2188C50.1979 50.5521 51.3646 51.5625 52.7188 52.25C54.0729 52.9167 55.6146 53.25 57.3438 53.25C59.0938 53.25 60.6458 52.9167 62 52.25C63.3542 51.5625 64.5 50.5521 65.4375 49.2188C66.375 47.8646 67.0833 46.2083 67.5625 44.25C68.0625 42.2917 68.3125 40.0417 68.3125 37.5ZM84 13.5H100.094C103.552 13.5 106.5 14.0208 108.938 15.0625C111.375 16.1042 113.24 17.6458 114.531 19.6875C115.844 21.7083 116.5 24.2083 116.5 27.1875C116.5 29.4583 116.083 31.4583 115.25 33.1875C114.417 34.9167 113.24 36.375 111.719 37.5625C110.198 38.7292 108.385 39.6354 106.281 40.2812L103.906 41.4375H89.4375L89.375 35.2188H100.219C102.094 35.2188 103.656 34.8854 104.906 34.2188C106.156 33.5521 107.094 32.6458 107.719 31.5C108.365 30.3333 108.688 29.0208 108.688 27.5625C108.688 25.9792 108.375 24.6042 107.75 23.4375C107.146 22.25 106.208 21.3438 104.938 20.7188C103.667 20.0729 102.052 19.75 100.094 19.75H91.8438V59H84V13.5ZM109.969 59L99.2812 38.5625L107.5 38.5312L118.344 58.5938V59H109.969ZM127.5 13.5H134.5L147.656 48.5938L160.781 13.5H167.781L150.406 59H144.844L127.5 13.5ZM124.312 13.5H130.969L132.125 43.875V59H124.312V13.5ZM164.312 13.5H171V59H163.156V43.875L164.312 13.5ZM198.594 19.5625L185 59H176.781L193.906 13.5H199.156L198.594 19.5625ZM209.969 59L196.344 19.5625L195.75 13.5H201.031L218.219 59H209.969ZM209.312 42.125V48.3438H184.562V42.125H209.312ZM28.5625 122.281C28.5625 121.344 28.4167 120.51 28.125 119.781C27.8542 119.052 27.3646 118.385 26.6562 117.781C25.9479 117.177 24.9479 116.594 23.6562 116.031C22.3854 115.448 20.7604 114.854 18.7812 114.25C16.6146 113.583 14.6146 112.844 12.7812 112.031C10.9688 111.198 9.38542 110.24 8.03125 109.156C6.67708 108.052 5.625 106.792 4.875 105.375C4.125 103.938 3.75 102.281 3.75 100.406C3.75 98.5521 4.13542 96.8646 4.90625 95.3438C5.69792 93.8229 6.8125 92.5104 8.25 91.4062C9.70833 90.2812 11.4271 89.4167 13.4062 88.8125C15.3854 88.1875 17.5729 87.875 19.9688 87.875C23.3438 87.875 26.25 88.5 28.6875 89.75C31.1458 91 33.0312 92.6771 34.3438 94.7812C35.6771 96.8854 36.3438 99.2083 36.3438 101.75H28.5625C28.5625 100.25 28.2396 98.9271 27.5938 97.7812C26.9688 96.6146 26.0104 95.6979 24.7188 95.0312C23.4479 94.3646 21.8333 94.0312 19.875 94.0312C18.0208 94.0312 16.4792 94.3125 15.25 94.875C14.0208 95.4375 13.1042 96.1979 12.5 97.1562C11.8958 98.1146 11.5938 99.1979 11.5938 100.406C11.5938 101.26 11.7917 102.042 12.1875 102.75C12.5833 103.438 13.1875 104.083 14 104.688C14.8125 105.271 15.8333 105.823 17.0625 106.344C18.2917 106.865 19.7396 107.365 21.4062 107.844C23.9271 108.594 26.125 109.427 28 110.344C29.875 111.24 31.4375 112.26 32.6875 113.406C33.9375 114.552 34.875 115.854 35.5 117.312C36.125 118.75 36.4375 120.385 36.4375 122.219C36.4375 124.135 36.0521 125.865 35.2812 127.406C34.5104 128.927 33.4062 130.229 31.9688 131.312C30.5521 132.375 28.8438 133.198 26.8438 133.781C24.8646 134.344 22.6562 134.625 20.2188 134.625C18.0312 134.625 15.875 134.333 13.75 133.75C11.6458 133.167 9.72917 132.281 8 131.094C6.27083 129.885 4.89583 128.385 3.875 126.594C2.85417 124.781 2.34375 122.667 2.34375 120.25H10.1875C10.1875 121.729 10.4375 122.99 10.9375 124.031C11.4583 125.073 12.1771 125.927 13.0938 126.594C14.0104 127.24 15.0729 127.719 16.2812 128.031C17.5104 128.344 18.8229 128.5 20.2188 128.5C22.0521 128.5 23.5833 128.24 24.8125 127.719C26.0625 127.198 27 126.469 27.625 125.531C28.25 124.594 28.5625 123.51 28.5625 122.281ZM62.0938 88.5V134H54.3125V88.5H62.0938ZM76.375 88.5V94.75H40.1562V88.5H76.375ZM107.906 88.5H115.719V118.906C115.719 122.365 114.969 125.26 113.469 127.594C111.969 129.927 109.927 131.688 107.344 132.875C104.781 134.042 101.917 134.625 98.75 134.625C95.4792 134.625 92.5625 134.042 90 132.875C87.4375 131.688 85.4167 129.927 83.9375 127.594C82.4792 125.26 81.75 122.365 81.75 118.906V88.5H89.5625V118.906C89.5625 121.094 89.9375 122.896 90.6875 124.312C91.4375 125.708 92.5 126.74 93.875 127.406C95.25 128.073 96.875 128.406 98.75 128.406C100.625 128.406 102.24 128.073 103.594 127.406C104.969 126.74 106.031 125.708 106.781 124.312C107.531 122.896 107.906 121.094 107.906 118.906V88.5ZM137.469 134H127.75L127.812 127.781H137.469C140.281 127.781 142.635 127.167 144.531 125.938C146.448 124.708 147.885 122.948 148.844 120.656C149.823 118.365 150.312 115.635 150.312 112.469V110C150.312 107.542 150.031 105.365 149.469 103.469C148.927 101.573 148.115 99.9792 147.031 98.6875C145.969 97.3958 144.656 96.4167 143.094 95.75C141.552 95.0833 139.771 94.75 137.75 94.75H127.562V88.5H137.75C140.771 88.5 143.531 89.0104 146.031 90.0312C148.531 91.0312 150.688 92.4792 152.5 94.375C154.333 96.2708 155.74 98.5417 156.719 101.188C157.698 103.833 158.188 106.792 158.188 110.062V112.469C158.188 115.74 157.698 118.698 156.719 121.344C155.74 123.99 154.333 126.26 152.5 128.156C150.667 130.031 148.479 131.479 145.938 132.5C143.417 133.5 140.594 134 137.469 134ZM132.094 88.5V134H124.25V88.5H132.094ZM174.438 88.5V134H166.594V88.5H174.438ZM220.469 110V112.5C220.469 115.938 220.021 119.021 219.125 121.75C218.229 124.479 216.948 126.802 215.281 128.719C213.635 130.635 211.656 132.104 209.344 133.125C207.031 134.125 204.469 134.625 201.656 134.625C198.865 134.625 196.312 134.125 194 133.125C191.708 132.104 189.719 130.635 188.031 128.719C186.344 126.802 185.031 124.479 184.094 121.75C183.177 119.021 182.719 115.938 182.719 112.5V110C182.719 106.562 183.177 103.49 184.094 100.781C185.01 98.0521 186.302 95.7292 187.969 93.8125C189.656 91.875 191.646 90.4062 193.938 89.4062C196.25 88.3854 198.802 87.875 201.594 87.875C204.406 87.875 206.969 88.3854 209.281 89.4062C211.594 90.4062 213.583 91.875 215.25 93.8125C216.917 95.7292 218.198 98.0521 219.094 100.781C220.01 103.49 220.469 106.562 220.469 110ZM212.625 112.5V109.938C212.625 107.396 212.375 105.156 211.875 103.219C211.396 101.26 210.677 99.625 209.719 98.3125C208.781 96.9792 207.625 95.9792 206.25 95.3125C204.875 94.625 203.323 94.2812 201.594 94.2812C199.865 94.2812 198.323 94.625 196.969 95.3125C195.615 95.9792 194.458 96.9792 193.5 98.3125C192.562 99.625 191.844 101.26 191.344 103.219C190.844 105.156 190.594 107.396 190.594 109.938V112.5C190.594 115.042 190.844 117.292 191.344 119.25C191.844 121.208 192.573 122.865 193.531 124.219C194.51 125.552 195.677 126.562 197.031 127.25C198.385 127.917 199.927 128.25 201.656 128.25C203.406 128.25 204.958 127.917 206.312 127.25C207.667 126.562 208.812 125.552 209.75 124.219C210.688 122.865 211.396 121.208 211.875 119.25C212.375 117.292 212.625 115.042 212.625 112.5Z" fill="#F5F5F5"/>
</svg>
