<svg width="15" height="15" viewBox="0 0 15 15" fill="none" xmlns="http://www.w3.org/2000/svg">
<path d="M2.80197 0.691724C2.56764 0.698811 2.36179 0.822483 2.18948 0.994767L1.90201 1.28178L5.01755 4.45408L5.46982 4.00179C5.74239 3.72923 5.74238 3.2792 5.46982 3.00664L3.45749 0.994767C3.26258 0.799859 3.03629 0.684531 2.80197 0.691724ZM8.20267 1.87321C10.9237 1.87321 13.125 4.07449 13.125 6.79555C13.1179 7.11506 13.6008 7.11506 13.5938 6.79555C13.5938 3.82116 11.1771 1.4063 8.19145 1.4063C7.89271 1.44208 7.91304 1.8652 8.20268 1.87321H8.20267ZM1.56967 1.61321L1.23962 1.9428C0.699562 2.48285 0.703126 3.18948 0.703126 3.51565C0.703126 4.86532 1.2427 7.19869 4.52133 10.4773C7.79997 13.756 10.1338 14.296 11.4835 14.296C11.8097 14.296 12.5163 14.2995 13.0563 13.7595L13.3548 13.461L10.2393 10.2887L9.91242 10.616C9.71872 10.8097 9.57579 10.8329 9.4368 10.8165C9.29782 10.8002 9.15414 10.7198 9.04907 10.6385C8.47614 10.1949 7.54852 9.55999 6.49384 8.50529C5.43915 7.45061 4.80423 6.52252 4.36066 5.94959C4.27934 5.84452 4.19893 5.70267 4.18259 5.56369C4.1662 5.42471 4.19136 5.27995 4.38492 5.08626L4.68567 4.78551L1.56967 1.61321ZM8.20267 2.81116C7.897 2.81825 7.897 3.27316 8.20267 3.27992C10.1471 3.27992 11.7183 4.85114 11.7183 6.79555C11.725 7.10118 12.1803 7.10118 12.187 6.79555C12.187 4.59781 10.4004 2.81116 8.20267 2.81116ZM8.20267 4.21741C7.88986 4.21741 7.88986 4.68662 8.20267 4.68662C9.37042 4.68662 10.3116 5.6278 10.3116 6.79555C10.3116 7.10835 10.7808 7.10835 10.7808 6.79555C10.7808 5.37446 9.62375 4.21741 8.20267 4.21741ZM8.20267 6.09333C8.59377 6.09333 8.90716 6.40444 8.90716 6.79555C8.90008 7.11506 9.38301 7.11506 9.37591 6.79555C9.37591 6.15112 8.8471 5.62411 8.19145 5.62411C7.86767 5.63926 7.8901 6.10849 8.20268 6.09333H8.20267ZM11.4944 9.32467C11.3139 9.32467 11.1336 9.39299 10.9973 9.52931L10.5707 9.95641L13.6867 13.1292L14.0044 12.8115C14.1767 12.6392 14.2997 12.4315 14.3069 12.1972C14.314 11.9628 14.1993 11.7366 14.0044 11.5416L11.992 9.52931C11.8558 9.39303 11.675 9.32467 11.4944 9.32467Z" fill="#F5F5F5"/>
</svg>
